<svg width="169mm" height="153mm" version="1.1" viewBox="0 0 169 153" xmlns="http://www.w3.org/2000/svg">
 <path width="100%" height="100%" d="m141.97 7.5335c14.616 8.3523 24.848 24.639 25.683 40.926 0.83527 16.287-7.7257 32.365-14.825 47.608-7.0994 15.034-12.528 29.233-22.76 39.464-10.231 10.44-25.265 16.913-40.091 16.704-14.825-0.41774-29.65-7.517-43.64-16.496-14.199-9.1874-27.771-20.045-36.541-35.497-8.561-15.243-12.32-34.87-3.3409-46.564 8.9786-11.693 30.486-15.452 46.564-23.386 16.078-7.9346 26.309-19.836 40.926-25.683 14.616-5.6378 33.409-5.429 48.025 2.9232z" fill="#fc0" stroke="rgba(255, 195, 25, 1)" stroke-width="0"/>
</svg>
